SourceSans3-Upright.ufo
<glyph name="C" format="2">
	<unicode hex="0043"/>
	<advance width="576"/>
	<outline>
		<contour>
			<point x="346" y="-12" type="curve" smooth="yes"/>
			<point x="428" y="-12"/>
			<point x="494" y="20"/>
			<point x="548" y="82" type="curve"/>
			<point x="489" y="151" type="line"/>
			<point x="453" y="113"/>
			<point x="410" y="89"/>
			<point x="354" y="89" type="curve" smooth="yes"/>
			<point x="241" y="89"/>
			<point x="168" y="179"/>
			<point x="168" y="328" type="curve" smooth="yes"/>
			<point x="168" y="474"/>
			<point x="246" y="565"/>
			<point x="351" y="565" type="curve" smooth="yes"/>
			<point x="402" y="565"/>
			<point x="441" y="546"/>
			<point x="475" y="512" type="curve"/>
			<point x="537" y="583" type="line"/>
			<point x="496" y="628"/>
			<point x="430" y="666"/>
			<point x="348" y="666" type="curve" smooth="yes"/>
			<point x="183" y="666"/>
			<point x="49" y="539"/>
			<point x="49" y="325" type="curve" smooth="yes"/>
			<point x="49" y="108"/>
			<point x="180" y="-12"/>
		</contour>
	</outline>
	<anchor name="aboverightUC" x="484" y="676"/>
	<anchor name="aboveUC" x="338" y="676"/>
	<anchor name="baseLC" x="346" y="0"/>
	<anchor name="belowLC" x="346" y="-22"/>
</glyph>
<glyph name="T" format="2">
	<unicode hex="0054"/>
	<advance width="546"/>
	<outline>
		<contour>
			<point x="215" y="0" type="line"/>
			<point x="331" y="0" type="line"/>
			<point x="331" y="556" type="line"/>
			<point x="520" y="556" type="line"/>
			<point x="520" y="654" type="line"/>
			<point x="26" y="654" type="line"/>
			<point x="26" y="556" type="line"/>
			<point x="215" y="556" type="line"/>
		</contour>
	</outline>
	<anchor name="aboverightUC" x="460" y="676"/>
	<anchor name="aboveUC" x="272" y="676"/>
	<anchor name="baseLC" x="272" y="0"/>
	<anchor name="belowLC" x="272" y="-22"/>
</glyph>
<glyph name="Eth" format="2">
	<unicode hex="00D0"/>
	<advance width="651"/>
	<outline>
		<contour>
			<point x="30" y="298" type="line"/>
			<point x="362" y="298" type="line"/>
			<point x="362" y="386" type="line"/>
			<point x="110" y="386" type="line"/>
			<point x="30" y="380" type="line"/>
		</contour>
		<component base="D" xOffset="26"/>
	</outline>
</glyph>
<glyph name="aogonek" format="2">
	<unicode hex="0105"/>
	<advance width="516"/>
	<outline>
		<contour>
			<point x="395" y="-217" type="curve" smooth="yes"/>
			<point x="430" y="-217"/>
			<point x="469" y="-203"/>
			<point x="494" y="-184" type="curve"/>
			<point x="468" y="-122" type="line"/>
			<point x="453" y="-131"/>
			<point x="438" y="-137"/>
			<point x="419" y="-137" type="curve" smooth="yes"/>
			<point x="396" y="-137"/>
			<point x="373" y="-124"/>
			<point x="373" y="-94" type="curve" smooth="yes"/>
			<point x="373" y="-61"/>
			<point x="400" y="-18"/>
			<point x="451" y="0" type="curve"/>
			<point x="451" y="290" type="line" smooth="yes"/>
			<point x="451" y="428"/>
			<point x="390" y="503"/>
			<point x="268" y="503" type="curve" smooth="yes"/>
			<point x="190" y="503"/>
			<point x="120" y="474"/>
			<point x="66" y="440" type="curve"/>
			<point x="108" y="362" type="line"/>
			<point x="152" y="388"/>
			<point x="198" y="408"/>
			<point x="246" y="408" type="curve" smooth="yes"/>
			<point x="312" y="408"/>
			<point x="334" y="366"/>
			<point x="336" y="316" type="curve"/>
			<point x="134" y="294"/>
			<point x="46" y="242"/>
			<point x="46" y="132" type="curve" smooth="yes"/>
			<point x="46" y="46"/>
			<point x="106" y="-12"/>
			<point x="192" y="-12" type="curve" smooth="yes"/>
			<point x="250" y="-12"/>
			<point x="298" y="16"/>
			<point x="344" y="54" type="curve"/>
			<point x="348" y="54" type="line"/>
			<point x="356" y="0" type="line"/>
			<point x="324" y="-20"/>
			<point x="285" y="-65"/>
			<point x="285" y="-120" type="curve" smooth="yes"/>
			<point x="285" y="-186"/>
			<point x="334" y="-217"/>
		</contour>
		<contour>
			<point x="228" y="82" type="curve" smooth="yes"/>
			<point x="188" y="82"/>
			<point x="158" y="98"/>
			<point x="158" y="140" type="curve" smooth="yes"/>
			<point x="158" y="190"/>
			<point x="202" y="220"/>
			<point x="336" y="236" type="curve"/>
			<point x="336" y="132" type="line"/>
			<point x="300" y="98"/>
			<point x="268" y="82"/>
		</contour>
	</outline>
	<anchor name="aboveLC" x="272" y="514"/>
</glyph>
<glyph name="Hbar" format="2">
	<unicode hex="0126"/>
	<advance width="703"/>
	<outline>
		<contour>
			<point x="22" y="476" type="line"/>
			<point x="679" y="476" type="line"/>
			<point x="679" y="564" type="line"/>
			<point x="108" y="564" type="line"/>
			<point x="22" y="558" type="line"/>
		</contour>
		<component base="H" xOffset="20"/>
	</outline>
</glyph>
<glyph name="Lslash" format="2">
	<unicode hex="0141"/>
	<advance width="522"/>
	<outline>
		<contour>
			<point x="30" y="192" type="line"/>
			<point x="114" y="232" type="line"/>
			<point x="208" y="276" type="line"/>
			<point x="438" y="376" type="line"/>
			<point x="394" y="462" type="line"/>
			<point x="200" y="374" type="line"/>
			<point x="106" y="330" type="line"/>
			<point x="-14" y="278" type="line"/>
		</contour>
		<component base="L" xOffset="22"/>
	</outline>
	<anchor name="aboveUC" x="166" y="676"/>
	<anchor name="belowLC" x="308" y="-22"/>
</glyph>
<glyph name="dotlessj" format="2">
	<unicode hex="0237"/>
	<advance width="263"/>
	<outline>
		<contour>
			<point x="34" y="-206" type="curve" smooth="yes"/>
			<point x="150" y="-206"/>
			<point x="190" y="-129"/>
			<point x="190" y="-25" type="curve" smooth="yes"/>
			<point x="190" y="491" type="line"/>
			<point x="74" y="491" type="line"/>
			<point x="74" y="-27" type="line" smooth="yes"/>
			<point x="74" y="-84"/>
			<point x="62" y="-115"/>
			<point x="18" y="-115" type="curve" smooth="yes"/>
			<point x="4" y="-115"/>
			<point x="-11" y="-111"/>
			<point x="-24" y="-107" type="curve"/>
			<point x="-46" y="-192" type="line"/>
			<point x="-27" y="-200"/>
			<point x="-1" y="-206"/>
		</contour>
	</outline>
	<anchor name="aboveLC" x="132" y="514"/>
	<anchor name="belowLC" x="74" y="-198"/>
</glyph>
<glyph name="Lbar" format="2">
	<unicode hex="023D"/>
	<advance width="520"/>
	<outline>
		<contour>
			<point x="22" y="314" type="line"/>
			<point x="392" y="314" type="line"/>
			<point x="392" y="402" type="line"/>
			<point x="105" y="402" type="line"/>
			<point x="22" y="396" type="line"/>
		</contour>
		<component base="L" xOffset="20"/>
	</outline>
	<anchor name="aboveUC" x="164" y="676"/>
	<anchor name="belowLC" x="306" y="-22"/>
</glyph>
<glyph name="nsmall" format="2">
	<unicode hex="0274"/>
	<advance width="552"/>
	<outline>
		<contour>
			<point x="73" y="0" type="line"/>
			<point x="181" y="0" type="line"/>
			<point x="181" y="170" type="line" smooth="yes"/>
			<point x="181" y="220"/>
			<point x="176" y="288"/>
			<point x="170" y="350" type="curve"/>
			<point x="174" y="350" type="line"/>
			<point x="192" y="300"/>
			<point x="208" y="262"/>
			<point x="224" y="234" type="curve" smooth="yes"/>
			<point x="358" y="0" type="line"/>
			<point x="479" y="0" type="line"/>
			<point x="479" y="491" type="line"/>
			<point x="371" y="491" type="line"/>
			<point x="371" y="322" type="line" smooth="yes"/>
			<point x="371" y="270"/>
			<point x="376" y="202"/>
			<point x="382" y="140" type="curve"/>
			<point x="378" y="140" type="line"/>
			<point x="360" y="192"/>
			<point x="344" y="229"/>
			<point x="326" y="260" type="curve" smooth="yes"/>
			<point x="192" y="491" type="line"/>
			<point x="73" y="491" type="line"/>
		</contour>
	</outline>
	<anchor name="aboveLC" x="282" y="514"/>
	<anchor name="belowLC" x="278" y="-22"/>
</glyph>
<glyph name="oesmall" format="2">
	<unicode hex="0276"/>
	<advance width="714"/>
	<outline>
		<contour>
			<point x="288" y="-12" type="curve" smooth="yes"/>
			<point x="326" y="-12"/>
			<point x="354" y="-10"/>
			<point x="398" y="0" type="curve"/>
			<point x="690" y="0" type="line"/>
			<point x="690" y="86" type="line"/>
			<point x="464" y="86" type="line"/>
			<point x="464" y="210" type="line"/>
			<point x="646" y="210" type="line"/>
			<point x="646" y="296" type="line"/>
			<point x="464" y="296" type="line"/>
			<point x="464" y="404" type="line"/>
			<point x="680" y="404" type="line"/>
			<point x="680" y="491" type="line"/>
			<point x="398" y="491" type="line"/>
			<point x="354" y="500"/>
			<point x="326" y="503"/>
			<point x="288" y="503" type="curve" smooth="yes"/>
			<point x="156" y="503"/>
			<point x="40" y="416"/>
			<point x="40" y="246" type="curve" smooth="yes"/>
			<point x="40" y="74"/>
			<point x="158" y="-12"/>
		</contour>
		<contour>
			<point x="294" y="80" type="curve" smooth="yes"/>
			<point x="222" y="80"/>
			<point x="160" y="128"/>
			<point x="160" y="246" type="curve" smooth="yes"/>
			<point x="160" y="360"/>
			<point x="222" y="410"/>
			<point x="294" y="410" type="curve" smooth="yes"/>
			<point x="312" y="410"/>
			<point x="332" y="408"/>
			<point x="349" y="402" type="curve"/>
			<point x="349" y="88" type="line"/>
			<point x="332" y="82"/>
			<point x="312" y="80"/>
		</contour>
	</outline>
	<anchor name="aboveLC" x="416" y="514"/>
	<anchor name="belowLC" x="436" y="-22"/>
</glyph>
<glyph name="glottalstop" format="2">
	<unicode hex="0294"/>
	<advance width="433"/>
	<outline>
		<contour>
			<point x="137" y="0" type="line"/>
			<point x="252" y="0" type="line"/>
			<point x="252" y="283" type="line"/>
			<point x="346" y="346"/>
			<point x="414" y="412"/>
			<point x="414" y="523" type="curve" smooth="yes"/>
			<point x="414" y="651"/>
			<point x="318" y="718"/>
			<point x="201" y="718" type="curve" smooth="yes"/>
			<point x="108" y="718"/>
			<point x="49" y="677"/>
			<point x="2" y="630" type="curve"/>
			<point x="57" y="561" type="line"/>
			<point x="92" y="595"/>
			<point x="133" y="624"/>
			<point x="190" y="624" type="curve" smooth="yes"/>
			<point x="258" y="624"/>
			<point x="298" y="583"/>
			<point x="298" y="516" type="curve" smooth="yes"/>
			<point x="298" y="442"/>
			<point x="252" y="392"/>
			<point x="137" y="326" type="curve"/>
		</contour>
	</outline>
	<anchor name="aboveUC" x="208" y="726"/>
	<anchor name="belowLC" x="188" y="-22"/>
</glyph>
<glyph name="glottalstopreversed" format="2">
	<unicode hex="0295"/>
	<advance width="433"/>
	<outline>
		<contour>
			<point x="180" y="0" type="line"/>
			<point x="296" y="0" type="line"/>
			<point x="296" y="326" type="line"/>
			<point x="181" y="392"/>
			<point x="134" y="442"/>
			<point x="134" y="516" type="curve" smooth="yes"/>
			<point x="134" y="583"/>
			<point x="177" y="624"/>
			<point x="247" y="624" type="curve" smooth="yes"/>
			<point x="302" y="624"/>
			<point x="342" y="595"/>
			<point x="376" y="561" type="curve"/>
			<point x="431" y="630" type="line"/>
			<point x="385" y="677"/>
			<point x="327" y="718"/>
			<point x="236" y="718" type="curve" smooth="yes"/>
			<point x="117" y="718"/>
			<point x="18" y="651"/>
			<point x="18" y="523" type="curve" smooth="yes"/>
			<point x="18" y="412"/>
			<point x="87" y="346"/>
			<point x="180" y="283" type="curve"/>
		</contour>
	</outline>
	<anchor name="aboveUC" x="214" y="726"/>
	<anchor name="belowLC" x="234" y="-22"/>
</glyph>
<glyph name="clickbilabial" format="2">
	<unicode hex="0298"/>
	<advance width="541"/>
	<outline>
		<contour>
			<point x="270" y="-12" type="curve" smooth="yes"/>
			<point x="402" y="-12"/>
			<point x="488" y="104"/>
			<point x="488" y="356" type="curve" smooth="yes"/>
			<point x="488" y="596"/>
			<point x="402" y="718"/>
			<point x="270" y="718" type="curve" smooth="yes"/>
			<point x="139" y="718"/>
			<point x="54" y="597"/>
			<point x="54" y="356" type="curve" smooth="yes"/>
			<point x="54" y="104"/>
			<point x="139" y="-12"/>
		</contour>
		<contour>
			<point x="270" y="84" type="curve" smooth="yes"/>
			<point x="211" y="84"/>
			<point x="160" y="152"/>
			<point x="160" y="356" type="curve" smooth="yes"/>
			<point x="160" y="548"/>
			<point x="211" y="622"/>
			<point x="270" y="622" type="curve" smooth="yes"/>
			<point x="332" y="622"/>
			<point x="382" y="548"/>
			<point x="382" y="356" type="curve" smooth="yes"/>
			<point x="382" y="152"/>
			<point x="332" y="84"/>
		</contour>
		<contour>
			<point x="270" y="284" type="curve" smooth="yes"/>
			<point x="311" y="284"/>
			<point x="340" y="314"/>
			<point x="340" y="356" type="curve" smooth="yes"/>
			<point x="340" y="398"/>
			<point x="311" y="428"/>
			<point x="270" y="428" type="curve" smooth="yes"/>
			<point x="231" y="428"/>
			<point x="200" y="398"/>
			<point x="200" y="356" type="curve" smooth="yes"/>
			<point x="200" y="314"/>
			<point x="231" y="284"/>
		</contour>
	</outline>
	<anchor name="aboveUC" x="270" y="726"/>
	<anchor name="belowLC" x="270" y="-22"/>
</glyph>
<glyph name="glottalstopstroke" format="2">
	<unicode hex="02A1"/>
	<advance width="443"/>
	<outline>
		<contour>
			<point x="32" y="122" type="line"/>
			<point x="372" y="122" type="line"/>
			<point x="372" y="210" type="line"/>
			<point x="128" y="210" type="line"/>
			<point x="32" y="205" type="line"/>
		</contour>
		<component base="glottalstop" xOffset="10"/>
	</outline>
	<anchor name="aboveUC" x="218" y="726"/>
	<anchor name="belowLC" x="198" y="-22"/>
</glyph>
<glyph name="glottalstopstrokereversed" format="2">
	<unicode hex="02A2"/>
	<advance width="443"/>
	<outline>
		<contour>
			<point x="66" y="122" type="line"/>
			<point x="406" y="122" type="line"/>
			<point x="406" y="210" type="line"/>
			<point x="160" y="210" type="line"/>
			<point x="66" y="205" type="line"/>
		</contour>
		<component base="glottalstopreversed"/>
	</outline>
	<anchor name="aboveUC" x="214" y="726"/>
	<anchor name="belowLC" x="234" y="-22"/>
</glyph>
<glyph name="Gamma" format="2">
	<unicode hex="0393"/>
	<advance width="510"/>
	<outline>
		<contour>
			<point x="83" y="0" type="line"/>
			<point x="199" y="0" type="line"/>
			<point x="199" y="556" type="line"/>
			<point x="478" y="556" type="line"/>
			<point x="478" y="654" type="line"/>
			<point x="83" y="654" type="line"/>
		</contour>
	</outline>
	<anchor name="aboveUC" x="296" y="676"/>
</glyph>
<glyph name="ghe" format="2">
	<unicode hex="0433"/>
	<advance width="422"/>
	<outline>
		<contour>
			<point x="73" y="0" type="line"/>
			<point x="188" y="0" type="line"/>
			<point x="188" y="400" type="line"/>
			<point x="396" y="400" type="line"/>
			<point x="396" y="491" type="line"/>
			<point x="73" y="491" type="line"/>
		</contour>
	</outline>
	<anchor name="aboveLC" x="244" y="514"/>
</glyph>
<glyph name="icyr" format="2">
	<unicode hex="0438"/>
	<advance width="574"/>
	<outline>
		<contour>
			<point x="73" y="0" type="line"/>
			<point x="200" y="0" type="line"/>
			<point x="338" y="236" type="line" smooth="yes"/>
			<point x="356" y="266"/>
			<point x="378" y="311"/>
			<point x="396" y="352" type="curve"/>
			<point x="400" y="352" type="line"/>
			<point x="392" y="278"/>
			<point x="389" y="220"/>
			<point x="389" y="170" type="curve" smooth="yes"/>
			<point x="389" y="0" type="line"/>
			<point x="501" y="0" type="line"/>
			<point x="501" y="491" type="line"/>
			<point x="374" y="491" type="line"/>
			<point x="236" y="254" type="line" smooth="yes"/>
			<point x="218" y="224"/>
			<point x="196" y="178"/>
			<point x="178" y="140" type="curve"/>
			<point x="174" y="140" type="line"/>
			<point x="180" y="212"/>
			<point x="185" y="268"/>
			<point x="185" y="322" type="curve" smooth="yes"/>
			<point x="185" y="491" type="line"/>
			<point x="73" y="491" type="line"/>
		</contour>
	</outline>
	<anchor name="aboveLC" x="290" y="514"/>
</glyph>
<glyph name="Ustraightstroke" format="2">
	<unicode hex="04B0"/>
	<advance width="501"/>
	<outline>
		<contour>
			<point x="52" y="218" type="line"/>
			<point x="450" y="218" type="line"/>
			<point x="450" y="306" type="line"/>
			<point x="144" y="306" type="line"/>
			<point x="52" y="302" type="line"/>
		</contour>
		<component base="Y"/>
	</outline>
	<anchor name="aboveUC" x="249" y="676"/>
</glyph>
<glyph name="A.sc" format="2">
	<advance width="487"/>
	<outline>
		<contour>
			<point x="-2" y="0" type="line"/>
			<point x="115" y="0" type="line"/>
			<point x="195" y="268" type="line" smooth="yes"/>
			<point x="210" y="322"/>
			<point x="224" y="380"/>
			<point x="239" y="435" type="curve"/>
			<point x="243" y="435" type="line"/>
			<point x="259" y="381"/>
			<point x="273" y="322"/>
			<point x="289" y="268" type="curve" smooth="yes"/>
			<point x="368" y="0" type="line"/>
			<point x="489" y="0" type="line"/>
			<point x="311" y="523" type="line"/>
			<point x="176" y="523" type="line"/>
		</contour>
		<contour>
			<point x="110" y="124" type="line"/>
			<point x="376" y="124" type="line"/>
			<point x="376" y="214" type="line"/>
			<point x="110" y="214" type="line"/>
		</contour>
	</outline>
	<anchor name="aboveUC" x="244" y="562"/>
	<anchor name="belowLC" x="244" y="-22"/>
	<anchor name="ogonekUC" x="414" y="0"/>
</glyph>
<glyph name="Bstroke.sc" format="2">
	<advance width="558"/>
	<outline>
		<contour>
			<point x="30" y="122" type="line"/>
			<point x="334" y="122" type="line"/>
			<point x="334" y="206" type="line"/>
			<point x="108" y="206" type="line"/>
			<point x="30" y="202" type="line"/>
		</contour>
		<contour>
			<point x="105" y="0" type="line"/>
			<point x="306" y="0" type="line" smooth="yes"/>
			<point x="428" y="0"/>
			<point x="522" y="46"/>
			<point x="522" y="154" type="curve" smooth="yes"/>
			<point x="522" y="230"/>
			<point x="478" y="274"/>
			<point x="402" y="288" type="curve"/>
			<point x="402" y="292" type="line"/>
			<point x="466" y="308"/>
			<point x="494" y="354"/>
			<point x="494" y="400" type="curve" smooth="yes"/>
			<point x="494" y="494"/>
			<point x="406" y="523"/>
			<point x="290" y="523" type="curve" smooth="yes"/>
			<point x="105" y="523" type="line"/>
		</contour>
		<contour>
			<point x="221" y="328" type="line"/>
			<point x="221" y="444" type="line"/>
			<point x="298" y="444" type="line" smooth="yes"/>
			<point x="358" y="444"/>
			<point x="388" y="428"/>
			<point x="388" y="390" type="curve" smooth="yes"/>
			<point x="388" y="352"/>
			<point x="363" y="328"/>
			<point x="298" y="328" type="curve" smooth="yes"/>
		</contour>
		<contour>
			<point x="221" y="78" type="line"/>
			<point x="221" y="244" type="line"/>
			<point x="302" y="244" type="line" smooth="yes"/>
			<point x="376" y="244"/>
			<point x="416" y="218"/>
			<point x="416" y="163" type="curve" smooth="yes"/>
			<point x="416" y="105"/>
			<point x="376" y="78"/>
			<point x="302" y="78" type="curve" smooth="yes"/>
		</contour>
	</outline>
</glyph>
<glyph name="Eogonek.ds" format="2">
	<advance width="487"/>
	<outline>
		<contour>
			<point x="284" y="-222" type="curve" smooth="yes"/>
			<point x="320" y="-222"/>
			<point x="361" y="-207"/>
			<point x="385" y="-188" type="curve"/>
			<point x="357" y="-123" type="line"/>
			<point x="344" y="-132"/>
			<point x="328" y="-139"/>
			<point x="309" y="-139" type="curve" smooth="yes"/>
			<point x="282" y="-139"/>
			<point x="260" y="-126"/>
			<point x="260" y="-96" type="curve" smooth="yes"/>
			<point x="260" y="-52"/>
			<point x="304" y="0"/>
			<point x="352" y="0" type="curve" smooth="yes"/>
			<point x="436" y="0" type="line"/>
			<point x="436" y="96" type="line"/>
			<point x="199" y="96" type="line"/>
			<point x="199" y="224" type="line"/>
			<point x="392" y="224" type="line"/>
			<point x="392" y="318" type="line"/>
			<point x="199" y="318" type="line"/>
			<point x="199" y="428" type="line"/>
			<point x="426" y="428" type="line"/>
			<point x="426" y="523" type="line"/>
			<point x="83" y="523" type="line"/>
			<point x="83" y="0" type="line"/>
			<point x="246" y="0" type="line"/>
			<point x="210" y="-22"/>
			<point x="168" y="-68"/>
			<point x="168" y="-128" type="curve" smooth="yes"/>
			<point x="168" y="-189"/>
			<point x="220" y="-222"/>
		</contour>
	</outline>
	<anchor name="aboveUC" x="266" y="562"/>
	<anchor name="belowLC" x="272" y="-222"/>
</glyph>
<glyph name="Gamma.sc" format="2">
	<advance width="460"/>
	<outline>
		<contour>
			<point x="83" y="0" type="line"/>
			<point x="199" y="0" type="line"/>
			<point x="199" y="427" type="line"/>
			<point x="429" y="427" type="line"/>
			<point x="429" y="523" type="line"/>
			<point x="83" y="523" type="line"/>
		</contour>
	</outline>
</glyph>
<glyph name="Ghestroke.sc" format="2">
	<advance width="484"/>
	<outline>
		<contour>
			<point x="30" y="206" type="line"/>
			<point x="360" y="206" type="line"/>
			<point x="360" y="294" type="line"/>
			<point x="110" y="294" type="line"/>
			<point x="30" y="289" type="line"/>
		</contour>
		<component base="Ghe.sc" xOffset="24"/>
	</outline>
</glyph>
<glyph name="I.as" format="2">
	<advance width="370"/>
	<outline>
		<contour>
			<point x="49" y="0" type="line"/>
			<point x="320" y="0" type="line"/>
			<point x="320" y="92" type="line"/>
			<point x="243" y="92" type="line"/>
			<point x="243" y="432" type="line"/>
			<point x="320" y="432" type="line"/>
			<point x="320" y="523" type="line"/>
			<point x="49" y="523" type="line"/>
			<point x="49" y="432" type="line"/>
			<point x="127" y="432" type="line"/>
			<point x="127" y="92" type="line"/>
			<point x="49" y="92" type="line"/>
		</contour>
	</outline>
	<anchor name="aboveUC" x="186" y="562"/>
	<anchor name="belowLC" x="186" y="-22"/>
	<anchor name="ogonekUC" x="184" y="0"/>
</glyph>
<glyph name="Istroke.a" format="2">
	<advance width="370"/>
	<outline>
		<contour>
			<point x="52" y="298" type="line"/>
			<point x="314" y="298" type="line"/>
			<point x="314" y="386" type="line"/>
			<point x="130" y="386" type="line"/>
			<point x="52" y="382" type="line"/>
		</contour>
		<component base="I.a"/>
	</outline>
	<anchor name="aboveUC" x="186" y="676"/>
	<anchor name="belowLC" x="186" y="-22"/>
</glyph>
<glyph name="Lbardbl" format="2">
	<advance width="520"/>
	<outline>
		<contour>
			<point x="22" y="260" type="line"/>
			<point x="392" y="260" type="line"/>
			<point x="392" y="328" type="line"/>
			<point x="104" y="328" type="line"/>
			<point x="22" y="322" type="line"/>
		</contour>
		<contour>
			<point x="22" y="388" type="line"/>
			<point x="392" y="388" type="line"/>
			<point x="392" y="456" type="line"/>
			<point x="104" y="456" type="line"/>
			<point x="22" y="450" type="line"/>
		</contour>
		<component base="L" xOffset="20"/>
	</outline>
	<anchor name="aboveUC" x="164" y="676"/>
	<anchor name="belowLC" x="306" y="-22"/>
</glyph>
<glyph name="O.sc" format="2">
	<advance width="603"/>
	<outline>
		<contour>
			<point x="302" y="-12" type="curve" smooth="yes"/>
			<point x="450" y="-12"/>
			<point x="554" y="92"/>
			<point x="554" y="263" type="curve" smooth="yes"/>
			<point x="554" y="436"/>
			<point x="450" y="535"/>
			<point x="302" y="535" type="curve" smooth="yes"/>
			<point x="153" y="535"/>
			<point x="49" y="436"/>
			<point x="49" y="263" type="curve" smooth="yes"/>
			<point x="49" y="92"/>
			<point x="153" y="-12"/>
		</contour>
		<contour>
			<point x="302" y="84" type="curve" smooth="yes"/>
			<point x="220" y="84"/>
			<point x="168" y="153"/>
			<point x="168" y="263" type="curve" smooth="yes"/>
			<point x="168" y="374"/>
			<point x="220" y="439"/>
			<point x="302" y="439" type="curve" smooth="yes"/>
			<point x="383" y="439"/>
			<point x="435" y="374"/>
			<point x="435" y="263" type="curve" smooth="yes"/>
			<point x="435" y="153"/>
			<point x="383" y="84"/>
		</contour>
	</outline>
	<anchor name="aboverightUC" x="530" y="562"/>
	<anchor name="aboveUC" x="300" y="562"/>
	<anchor name="belowLC" x="300" y="-22"/>
	<anchor name="hornLC" x="432" y="504"/>
	<anchor name="ogonekUC" x="300" y="0"/>
</glyph>
<glyph name="P.sc" format="2">
	<advance width="535"/>
	<outline>
		<contour>
			<point x="83" y="0" type="line"/>
			<point x="199" y="0" type="line"/>
			<point x="199" y="176" type="line"/>
			<point x="278" y="176" type="line" smooth="yes"/>
			<point x="400" y="176"/>
			<point x="496" y="234"/>
			<point x="496" y="356" type="curve" smooth="yes"/>
			<point x="496" y="482"/>
			<point x="400" y="523"/>
			<point x="278" y="523" type="curve" smooth="yes"/>
			<point x="83" y="523" type="line"/>
		</contour>
		<contour>
			<point x="199" y="266" type="line"/>
			<point x="199" y="428" type="line"/>
			<point x="272" y="428" type="line" smooth="yes"/>
			<point x="348" y="428"/>
			<point x="384" y="410"/>
			<point x="384" y="350" type="curve" smooth="yes"/>
			<point x="384" y="294"/>
			<point x="350" y="266"/>
			<point x="272" y="266" type="curve" smooth="yes"/>
		</contour>
	</outline>
	<anchor name="aboverightUC" x="454" y="562"/>
	<anchor name="aboveUC" x="292" y="562"/>
	<anchor name="belowLC" x="149" y="-22"/>
</glyph>
<glyph name="Tstroke" format="2">
	<advance width="546"/>
	<outline>
		<contour>
			<point x="76" y="-38" type="line"/>
			<point x="576" y="678" type="line"/>
			<point x="534" y="704" type="line"/>
			<point x="34" y="-12" type="line"/>
		</contour>
		<component base="T"/>
	</outline>
	<anchor name="aboveUC" x="272" y="676"/>
	<anchor name="belowLC" x="272" y="-22"/>
</glyph>
<glyph name="W.sc" format="2">
	<advance width="701"/>
	<outline>
		<contour>
			<point x="128" y="0" type="line"/>
			<point x="266" y="0" type="line"/>
			<point x="326" y="248" type="line" smooth="yes"/>
			<point x="336" y="288"/>
			<point x="344" y="334"/>
			<point x="349" y="374" type="curve"/>
			<point x="353" y="374" type="line"/>
			<point x="358" y="334"/>
			<point x="364" y="288"/>
			<point x="374" y="248" type="curve" smooth="yes"/>
			<point x="436" y="0" type="line"/>
			<point x="578" y="0" type="line"/>
			<point x="682" y="523" type="line"/>
			<point x="576" y="523" type="line"/>
			<point x="532" y="274" type="line"/>
			<point x="523" y="220"/>
			<point x="514" y="164"/>
			<point x="506" y="104" type="curve"/>
			<point x="502" y="104" type="line"/>
			<point x="492" y="164"/>
			<point x="480" y="220"/>
			<point x="468" y="274" type="curve"/>
			<point x="408" y="523" type="line"/>
			<point x="302" y="523" type="line"/>
			<point x="238" y="274" type="line"/>
			<point x="227" y="219"/>
			<point x="216" y="164"/>
			<point x="206" y="104" type="curve"/>
			<point x="202" y="104" type="line"/>
			<point x="194" y="164"/>
			<point x="185" y="218"/>
			<point x="176" y="274" type="curve"/>
			<point x="132" y="523" type="line"/>
			<point x="18" y="523" type="line"/>
		</contour>
	</outline>
	<anchor name="aboverightUC" x="626" y="562"/>
	<anchor name="aboveUC" x="352" y="562"/>
	<anchor name="belowLC" x="352" y="-22"/>
</glyph>
<glyph name="Y.sc" format="2">
	<advance width="442"/>
	<outline>
		<contour>
			<point x="163" y="0" type="line"/>
			<point x="279" y="0" type="line"/>
			<point x="279" y="188" type="line"/>
			<point x="446" y="523" type="line"/>
			<point x="326" y="523" type="line"/>
			<point x="272" y="401" type="line"/>
			<point x="256" y="362"/>
			<point x="240" y="326"/>
			<point x="224" y="286" type="curve"/>
			<point x="220" y="286" type="line"/>
			<point x="203" y="326"/>
			<point x="187" y="362"/>
			<point x="172" y="401" type="curve"/>
			<point x="118" y="523" type="line"/>
			<point x="-4" y="523" type="line"/>
			<point x="163" y="188" type="line"/>
		</contour>
	</outline>
	<anchor name="aboverightUC" x="400" y="562"/>
	<anchor name="aboveUC" x="220" y="562"/>
	<anchor name="belowLC" x="220" y="-22"/>
</glyph>
<glyph name=".notdef" format="2">
	<advance width="672"/>
	<outline>
		<contour>
			<point x="84" y="0" type="line"/>
			<point x="588" y="0" type="line"/>
			<point x="588" y="660" type="line"/>
			<point x="84" y="660" type="line"/>
		</contour>
		<contour>
			<point x="230" y="75" type="line"/>
			<point x="287" y="179" type="line"/>
			<point x="334" y="279" type="line"/>
			<point x="338" y="279" type="line"/>
			<point x="384" y="179" type="line"/>
			<point x="440" y="75" type="line"/>
		</contour>
		<contour>
			<point x="334" y="401" type="line"/>
			<point x="288" y="495" type="line"/>
			<point x="239" y="584" type="line"/>
			<point x="432" y="584" type="line"/>
			<point x="384" y="495" type="line"/>
			<point x="338" y="401" type="line"/>
		</contour>
		<contour>
			<point x="166" y="133" type="line"/>
			<point x="166" y="549" type="line"/>
			<point x="277" y="340" type="line"/>
		</contour>
		<contour>
			<point x="505" y="133" type="line"/>
			<point x="395" y="340" type="line"/>
			<point x="505" y="549" type="line"/>
		</contour>
	</outline>
</glyph>
<glyph name="aogonek.f" format="2">
	<advance width="523"/>
	<outline>
		<contour>
			<point x="248" y="-217" type="curve" smooth="yes"/>
			<point x="284" y="-217"/>
			<point x="322" y="-203"/>
			<point x="346" y="-184" type="curve"/>
			<point x="320" y="-124" type="line"/>
			<point x="306" y="-132"/>
			<point x="290" y="-138"/>
			<point x="270" y="-138" type="curve" smooth="yes"/>
			<point x="248" y="-138"/>
			<point x="226" y="-124"/>
			<point x="226" y="-94" type="curve" smooth="yes"/>
			<point x="226" y="-64"/>
			<point x="246" y="-25"/>
			<point x="272" y="-2" type="curve" smooth="yes"/>
			<point x="294" y="18"/>
			<point x="322" y="38"/>
			<point x="348" y="58" type="curve"/>
			<point x="351" y="58" type="line"/>
			<point x="364" y="10"/>
			<point x="396" y="-10"/>
			<point x="448" y="-10" type="curve" smooth="yes"/>
			<point x="470" y="-10"/>
			<point x="490" y="-4"/>
			<point x="502" y="0" type="curve"/>
			<point x="488" y="86" type="line"/>
			<point x="480" y="84"/>
			<point x="477" y="84"/>
			<point x="473" y="84" type="curve" smooth="yes"/>
			<point x="460" y="84"/>
			<point x="451" y="94"/>
			<point x="451" y="122" type="curve" smooth="yes"/>
			<point x="451" y="292" type="line" smooth="yes"/>
			<point x="451" y="428"/>
			<point x="390" y="503"/>
			<point x="268" y="503" type="curve" smooth="yes"/>
			<point x="190" y="503"/>
			<point x="120" y="475"/>
			<point x="66" y="440" type="curve"/>
			<point x="108" y="362" type="line"/>
			<point x="152" y="388"/>
			<point x="198" y="408"/>
			<point x="246" y="408" type="curve" smooth="yes"/>
			<point x="312" y="408"/>
			<point x="334" y="366"/>
			<point x="336" y="316" type="curve"/>
			<point x="133" y="294"/>
			<point x="46" y="242"/>
			<point x="46" y="132" type="curve" smooth="yes"/>
			<point x="46" y="46"/>
			<point x="106" y="-12"/>
			<point x="192" y="-12" type="curve" smooth="yes"/>
			<point x="198" y="-12"/>
			<point x="212" y="-10"/>
			<point x="222" y="-8" type="curve"/>
			<point x="216" y="2" type="line"/>
			<point x="186" y="-20"/>
			<point x="138" y="-64"/>
			<point x="138" y="-120" type="curve" smooth="yes"/>
			<point x="138" y="-186"/>
			<point x="188" y="-217"/>
		</contour>
		<contour>
			<point x="228" y="82" type="curve" smooth="yes"/>
			<point x="188" y="82"/>
			<point x="158" y="98"/>
			<point x="158" y="140" type="curve" smooth="yes"/>
			<point x="158" y="190"/>
			<point x="202" y="220"/>
			<point x="336" y="236" type="curve"/>
			<point x="336" y="132" type="line"/>
			<point x="300" y="98"/>
			<point x="268" y="82"/>
		</contour>
	</outline>
	<anchor name="aboveLC" x="272" y="514"/>
</glyph>
<glyph name="istroke.x" format="2">
	<advance width="314"/>
	<outline>
		<contour>
			<point x="22" y="210" type="line"/>
			<point x="290" y="210" type="line"/>
			<point x="290" y="298" type="line"/>
			<point x="99" y="298" type="line"/>
			<point x="22" y="292" type="line"/>
		</contour>
		<component base="dotlessi" xOffset="26"/>
	</outline>
	<anchor name="aboveLC" x="156" y="514"/>
	<anchor name="belowLC" x="156" y="-22"/>
	<anchor name="ogonekLC" x="156" y="0"/>
</glyph>
<glyph name="lbar.a" format="2">
	<advance width="313"/>
	<outline>
		<contour>
			<point x="22" y="338" type="line"/>
			<point x="288" y="338" type="line"/>
			<point x="288" y="426" type="line"/>
			<point x="100" y="426" type="line"/>
			<point x="22" y="420" type="line"/>
		</contour>
		<component base="l.a" xOffset="26"/>
	</outline>
	<anchor name="aboveUC" x="160" y="726"/>
	<anchor name="belowLC" x="160" y="-22"/>
</glyph>
